<mxfile host="app.diagrams.net" modified="2023-05-11T19:17:49.782Z" agent="Mozilla/5.0 (Macintosh; Intel Mac OS X 10_15_7) AppleWebKit/537.36 (KHTML, like Gecko) Chrome/112.0.0.0 Safari/537.36" version="21.2.9" etag="FfmEl7As90RYqB6oDEQs" type="github">
  <diagram name="Page-1" id="_-TZ1NRUZV7njNkisQRv">
    <mxGraphModel>
      <root>
        <mxCell id="0" />
        <mxCell id="1" parent="0" />
        <mxCell id="2" value="SAP Products &#xa; Categories" style="ellipse;aspect=fixed;strokeWidth=2;whiteSpace=wrap;" vertex="1" parent="1">
          <mxGeometry x="461" y="203" width="112" height="112" as="geometry" />
        </mxCell>
        <mxCell id="3" value="Software Solutions" style="rounded=1;absoluteArcSize=1;arcSize=14;whiteSpace=wrap;strokeWidth=2;" vertex="1" parent="1">
          <mxGeometry x="324" y="127" width="153" height="37" as="geometry" />
        </mxCell>
        <mxCell id="4" value="ERP" style="rounded=1;absoluteArcSize=1;arcSize=14;whiteSpace=wrap;strokeWidth=2;" vertex="1" parent="1">
          <mxGeometry x="341" y="41" width="47" height="37" as="geometry" />
        </mxCell>
        <mxCell id="5" value="CRM" style="rounded=1;absoluteArcSize=1;arcSize=14;whiteSpace=wrap;strokeWidth=2;" vertex="1" parent="1">
          <mxGeometry x="469" y="174" width="50" height="37" as="geometry" />
        </mxCell>
        <mxCell id="6" value="SCM" style="rounded=1;absoluteArcSize=1;arcSize=14;whiteSpace=wrap;strokeWidth=2;" vertex="1" parent="1">
          <mxGeometry x="466" y="66" width="49" height="37" as="geometry" />
        </mxCell>
        <mxCell id="7" value="PLM" style="rounded=1;absoluteArcSize=1;arcSize=14;whiteSpace=wrap;strokeWidth=2;" vertex="1" parent="1">
          <mxGeometry x="534" y="78" width="48" height="37" as="geometry" />
        </mxCell>
        <mxCell id="8" value="HCM" style="rounded=1;absoluteArcSize=1;arcSize=14;whiteSpace=wrap;strokeWidth=2;" vertex="1" parent="1">
          <mxGeometry x="542" y="144" width="51" height="37" as="geometry" />
        </mxCell>
        <mxCell id="9" value="SRM" style="rounded=1;absoluteArcSize=1;arcSize=14;whiteSpace=wrap;strokeWidth=2;" vertex="1" parent="1">
          <mxGeometry x="407" y="15" width="48" height="37" as="geometry" />
        </mxCell>
        <mxCell id="10" value="Analytics" style="rounded=1;absoluteArcSize=1;arcSize=14;whiteSpace=wrap;strokeWidth=2;" vertex="1" parent="1">
          <mxGeometry x="201" y="122" width="85" height="37" as="geometry" />
        </mxCell>
        <mxCell id="11" value="Data Management" style="rounded=1;absoluteArcSize=1;arcSize=14;whiteSpace=wrap;strokeWidth=2;" vertex="1" parent="1">
          <mxGeometry x="80" y="169" width="149" height="37" as="geometry" />
        </mxCell>
        <mxCell id="12" value="IoT &amp; Digital Supply Chain" style="rounded=1;absoluteArcSize=1;arcSize=14;whiteSpace=wrap;strokeWidth=2;" vertex="1" parent="1">
          <mxGeometry x="236" y="208" width="206" height="37" as="geometry" />
        </mxCell>
        <mxCell id="13" value="Industry Solutions" style="rounded=1;absoluteArcSize=1;arcSize=14;whiteSpace=wrap;strokeWidth=2;" vertex="1" parent="1">
          <mxGeometry x="174" y="59" width="147" height="37" as="geometry" />
        </mxCell>
        <mxCell id="14" value="Cloud Solutions" style="rounded=1;absoluteArcSize=1;arcSize=14;whiteSpace=wrap;strokeWidth=2;" vertex="1" parent="1">
          <mxGeometry x="688" y="262" width="130" height="37" as="geometry" />
        </mxCell>
        <mxCell id="15" value="SAP S/4HANA Cloud" style="rounded=1;absoluteArcSize=1;arcSize=14;whiteSpace=wrap;strokeWidth=2;" vertex="1" parent="1">
          <mxGeometry x="795" y="196" width="159" height="37" as="geometry" />
        </mxCell>
        <mxCell id="16" value="SAP SuccessFactors" style="rounded=1;absoluteArcSize=1;arcSize=14;whiteSpace=wrap;strokeWidth=2;" vertex="1" parent="1">
          <mxGeometry x="483" y="309" width="157" height="37" as="geometry" />
        </mxCell>
        <mxCell id="17" value="SAP Ariba" style="rounded=1;absoluteArcSize=1;arcSize=14;whiteSpace=wrap;strokeWidth=2;" vertex="1" parent="1">
          <mxGeometry x="649" y="343" width="87" height="37" as="geometry" />
        </mxCell>
        <mxCell id="18" value="SAP Fieldglass" style="rounded=1;absoluteArcSize=1;arcSize=14;whiteSpace=wrap;strokeWidth=2;" vertex="1" parent="1">
          <mxGeometry x="661" y="158" width="120" height="37" as="geometry" />
        </mxCell>
        <mxCell id="19" value="SAP Concur" style="rounded=1;absoluteArcSize=1;arcSize=14;whiteSpace=wrap;strokeWidth=2;" vertex="1" parent="1">
          <mxGeometry x="594" y="207" width="100" height="37" as="geometry" />
        </mxCell>
        <mxCell id="20" value="SAP C/4HANA" style="rounded=1;absoluteArcSize=1;arcSize=14;whiteSpace=wrap;strokeWidth=2;" vertex="1" parent="1">
          <mxGeometry x="880" y="308" width="116" height="37" as="geometry" />
        </mxCell>
        <mxCell id="21" value="SAP Analytics Cloud" style="rounded=1;absoluteArcSize=1;arcSize=14;whiteSpace=wrap;strokeWidth=2;" vertex="1" parent="1">
          <mxGeometry x="893" y="244" width="160" height="37" as="geometry" />
        </mxCell>
        <mxCell id="22" value="SAP Cloud Platform" style="rounded=1;absoluteArcSize=1;arcSize=14;whiteSpace=wrap;strokeWidth=2;" vertex="1" parent="1">
          <mxGeometry x="757" y="356" width="158" height="37" as="geometry" />
        </mxCell>
        <mxCell id="23" value="Platform and Technology" style="rounded=1;absoluteArcSize=1;arcSize=14;whiteSpace=wrap;strokeWidth=2;" vertex="1" parent="1">
          <mxGeometry x="260" y="320" width="197" height="37" as="geometry" />
        </mxCell>
        <mxCell id="24" value="SAP HANA and Database Services" style="rounded=1;absoluteArcSize=1;arcSize=14;whiteSpace=wrap;strokeWidth=2;" vertex="1" parent="1">
          <mxGeometry x="15" y="299" width="190" height="55" as="geometry" />
        </mxCell>
        <mxCell id="25" value="SAP Mobile Services" style="rounded=1;absoluteArcSize=1;arcSize=14;whiteSpace=wrap;strokeWidth=2;" vertex="1" parent="1">
          <mxGeometry x="169" y="385" width="160" height="37" as="geometry" />
        </mxCell>
        <mxCell id="26" value="SAP Integration and Extension" style="rounded=1;absoluteArcSize=1;arcSize=14;whiteSpace=wrap;strokeWidth=2;" vertex="1" parent="1">
          <mxGeometry x="380" y="392" width="161" height="55" as="geometry" />
        </mxCell>
        <mxCell id="27" style="endArrow=none" edge="1" parent="1" source="2" target="3">
          <mxGeometry relative="1" as="geometry" />
        </mxCell>
        <mxCell id="28" style="endArrow=none" edge="1" parent="1" source="2" target="14">
          <mxGeometry relative="1" as="geometry" />
        </mxCell>
        <mxCell id="29" style="endArrow=none" edge="1" parent="1" source="2" target="23">
          <mxGeometry relative="1" as="geometry" />
        </mxCell>
        <mxCell id="30" style="endArrow=none" edge="1" parent="1" source="3" target="4">
          <mxGeometry relative="1" as="geometry" />
        </mxCell>
        <mxCell id="31" style="endArrow=none" edge="1" parent="1" source="3" target="5">
          <mxGeometry relative="1" as="geometry" />
        </mxCell>
        <mxCell id="32" style="endArrow=none" edge="1" parent="1" source="3" target="6">
          <mxGeometry relative="1" as="geometry" />
        </mxCell>
        <mxCell id="33" style="endArrow=none" edge="1" parent="1" source="3" target="7">
          <mxGeometry relative="1" as="geometry" />
        </mxCell>
        <mxCell id="34" style="endArrow=none" edge="1" parent="1" source="3" target="8">
          <mxGeometry relative="1" as="geometry" />
        </mxCell>
        <mxCell id="35" style="endArrow=none" edge="1" parent="1" source="3" target="9">
          <mxGeometry relative="1" as="geometry" />
        </mxCell>
        <mxCell id="36" style="endArrow=none" edge="1" parent="1" source="3" target="10">
          <mxGeometry relative="1" as="geometry" />
        </mxCell>
        <mxCell id="37" style="endArrow=none" edge="1" parent="1" source="3" target="11">
          <mxGeometry relative="1" as="geometry" />
        </mxCell>
        <mxCell id="38" style="endArrow=none" edge="1" parent="1" source="3" target="12">
          <mxGeometry relative="1" as="geometry" />
        </mxCell>
        <mxCell id="39" style="endArrow=none" edge="1" parent="1" source="3" target="13">
          <mxGeometry relative="1" as="geometry" />
        </mxCell>
        <mxCell id="40" style="endArrow=none" edge="1" parent="1" source="14" target="15">
          <mxGeometry relative="1" as="geometry" />
        </mxCell>
        <mxCell id="41" style="endArrow=none" edge="1" parent="1" source="14" target="16">
          <mxGeometry relative="1" as="geometry" />
        </mxCell>
        <mxCell id="42" style="endArrow=none" edge="1" parent="1" source="14" target="17">
          <mxGeometry relative="1" as="geometry" />
        </mxCell>
        <mxCell id="43" style="endArrow=none" edge="1" parent="1" source="14" target="18">
          <mxGeometry relative="1" as="geometry" />
        </mxCell>
        <mxCell id="44" style="endArrow=none" edge="1" parent="1" source="14" target="19">
          <mxGeometry relative="1" as="geometry" />
        </mxCell>
        <mxCell id="45" style="endArrow=none" edge="1" parent="1" source="14" target="20">
          <mxGeometry relative="1" as="geometry" />
        </mxCell>
        <mxCell id="46" style="endArrow=none" edge="1" parent="1" source="14" target="21">
          <mxGeometry relative="1" as="geometry" />
        </mxCell>
        <mxCell id="47" style="endArrow=none" edge="1" parent="1" source="14" target="22">
          <mxGeometry relative="1" as="geometry" />
        </mxCell>
        <mxCell id="48" style="endArrow=none" edge="1" parent="1" source="23" target="24">
          <mxGeometry relative="1" as="geometry" />
        </mxCell>
        <mxCell id="49" style="endArrow=none" edge="1" parent="1" source="23" target="25">
          <mxGeometry relative="1" as="geometry" />
        </mxCell>
        <mxCell id="50" style="endArrow=none" edge="1" parent="1" source="23" target="26">
          <mxGeometry relative="1" as="geometry" />
        </mxCell>
      </root>
    </mxGraphModel>
  </diagram>
</mxfile>
